# xmcd CD database file
#
# Track frame offsets:
#	187
#	21955
#	35240
#	49057
#	68560
#	88677
#	102285
#	122300
#	135455
#
# Disc length: 2095 seconds
#
# Revision: 3
# Processed by: cddbd v1.5.2PL0 Copyright (c) Steve Scherf et al.
# Submitted via: CDex 1.51
#
DISCID=71082d09
DTITLE=Muddy Waters - Muddy Waters At Newport
DYEAR=2001
DGENRE=Blues
TTITLE0=I Got My Brand On You
TTITLE1=I'm Your Hoochie Coochie Man
TTITLE2=Baby, Please Don't Go
TTITLE3=Soon Forgotten
TTITLE4=Tiger In Your Tank
TTITLE5=I Feel So Good
TTITLE6=Got My Mojo Working
TTITLE7=Got My Mojo Working, Part 2
TTITLE8=Goodbye Newport Blues
EXTD=YEAR: 2001
EXTT0=
EXTT1=
EXTT2=
EXTT3=
EXTT4=
EXTT5=
EXTT6=
EXTT7=
EXTT8=
PLAYORDER=
